<svg width="212" height="61" viewBox="0 0 212 61" fill="none" xmlns="http://www.w3.org/2000/svg">
<g filter="url(#filter0_d_798_404)">
<path d="M4.864 1.6H12.856L18.04 40.696H18.184L23.368 1.6H30.64L23.008 52H12.496L4.864 1.6ZM34.4442 1.6H56.0442V8.8H42.3642V22.12H53.2362V29.32H42.3642V44.8H56.0442V52H34.4442V1.6ZM71.0371 52.72C67.1971 52.72 64.2931 51.64 62.3251 49.48C60.3571 47.272 59.3731 44.128 59.3731 40.048V37.168H66.8611V40.624C66.8611 43.888 68.2291 45.52 70.9651 45.52C72.3091 45.52 73.3171 45.136 73.9891 44.368C74.7091 43.552 75.0691 42.256 75.0691 40.48C75.0691 38.368 74.5891 36.52 73.6291 34.936C72.6691 33.304 70.8931 31.36 68.3011 29.104C65.0371 26.224 62.7571 23.632 61.4611 21.328C60.1651 18.976 59.5171 16.336 59.5171 13.408C59.5171 9.424 60.5251 6.352 62.5411 4.192C64.5571 1.984 67.4851 0.879997 71.3251 0.879997C75.1171 0.879997 77.9731 1.984 79.8931 4.192C81.8611 6.352 82.8451 9.472 82.8451 13.552V15.64H75.3571V13.048C75.3571 11.32 75.0211 10.072 74.3491 9.304C73.6771 8.488 72.6931 8.08 71.3971 8.08C68.7571 8.08 67.4371 9.688 67.4371 12.904C67.4371 14.728 67.9171 16.432 68.8771 18.016C69.8851 19.6 71.6851 21.52 74.2771 23.776C77.5891 26.656 79.8691 29.272 81.1171 31.624C82.3651 33.976 82.9891 36.736 82.9891 39.904C82.9891 44.032 81.9571 47.2 79.8931 49.408C77.8771 51.616 74.9251 52.72 71.0371 52.72ZM93.7221 8.8H85.4421V1.6H109.922V8.8H101.642V52H93.7221V8.8ZM113.757 1.6H121.677V52H113.757V1.6ZM127.608 1.6H139.704C143.64 1.6 146.592 2.656 148.56 4.768C150.528 6.88 151.512 9.976 151.512 14.056V39.544C151.512 43.624 150.528 46.72 148.56 48.832C146.592 50.944 143.64 52 139.704 52H127.608V1.6ZM139.56 44.8C140.856 44.8 141.84 44.416 142.512 43.648C143.232 42.88 143.592 41.632 143.592 39.904V13.696C143.592 11.968 143.232 10.72 142.512 9.952C141.84 9.184 140.856 8.8 139.56 8.8H135.528V44.8H139.56ZM168.306 52.72C164.418 52.72 161.442 51.616 159.378 49.408C157.314 47.2 156.282 44.08 156.282 40.048V13.552C156.282 9.52 157.314 6.4 159.378 4.192C161.442 1.984 164.418 0.879997 168.306 0.879997C172.194 0.879997 175.17 1.984 177.234 4.192C179.298 6.4 180.33 9.52 180.33 13.552V40.048C180.33 44.08 179.298 47.2 177.234 49.408C175.17 51.616 172.194 52.72 168.306 52.72ZM168.306 45.52C171.042 45.52 172.41 43.864 172.41 40.552V13.048C172.41 9.736 171.042 8.08 168.306 8.08C165.57 8.08 164.202 9.736 164.202 13.048V40.552C164.202 43.864 165.57 45.52 168.306 45.52ZM195.982 52.72C192.142 52.72 189.238 51.64 187.27 49.48C185.302 47.272 184.318 44.128 184.318 40.048V37.168H191.806V40.624C191.806 43.888 193.174 45.52 195.91 45.52C197.254 45.52 198.262 45.136 198.934 44.368C199.654 43.552 200.014 42.256 200.014 40.48C200.014 38.368 199.534 36.52 198.574 34.936C197.614 33.304 195.838 31.36 193.246 29.104C189.982 26.224 187.702 23.632 186.406 21.328C185.11 18.976 184.462 16.336 184.462 13.408C184.462 9.424 185.47 6.352 187.486 4.192C189.502 1.984 192.43 0.879997 196.27 0.879997C200.062 0.879997 202.918 1.984 204.838 4.192C206.806 6.352 207.79 9.472 207.79 13.552V15.64H200.302V13.048C200.302 11.32 199.966 10.072 199.294 9.304C198.622 8.488 197.638 8.08 196.342 8.08C193.702 8.08 192.382 9.688 192.382 12.904C192.382 14.728 192.862 16.432 193.822 18.016C194.83 19.6 196.63 21.52 199.222 23.776C202.534 26.656 204.814 29.272 206.062 31.624C207.31 33.976 207.934 36.736 207.934 39.904C207.934 44.032 206.902 47.2 204.838 49.408C202.822 51.616 199.87 52.72 195.982 52.72Z" fill="white"/>
</g>
<defs>
<filter id="filter0_d_798_404" x="0.864014" y="0.880005" width="211.07" height="59.84" filterUnits="userSpaceOnUse" color-interpolation-filters="sRGB">
<feFlood flood-opacity="0" result="BackgroundImageFix"/>
<feColorMatrix in="SourceAlpha" type="matrix" values="0 0 0 0 0 0 0 0 0 0 0 0 0 0 0 0 0 0 127 0" result="hardAlpha"/>
<feOffset dy="4"/>
<feGaussianBlur stdDeviation="2"/>
<feComposite in2="hardAlpha" operator="out"/>
<feColorMatrix type="matrix" values="0 0 0 0 0 0 0 0 0 0 0 0 0 0 0 0 0 0 0.25 0"/>
<feBlend mode="normal" in2="BackgroundImageFix" result="effect1_dropShadow_798_404"/>
<feBlend mode="normal" in="SourceGraphic" in2="effect1_dropShadow_798_404" result="shape"/>
</filter>
</defs>
</svg>
