<svg width="163" height="61" viewBox="0 0 163 61" fill="none" xmlns="http://www.w3.org/2000/svg">
<g filter="url(#filter0_d_795_402)">
<path d="M4.8946 1.02636H16.8466C20.9266 1.02636 23.9026 1.98636 25.7746 3.90636C27.6466 5.77836 28.5826 8.68236 28.5826 12.6184V14.6344C28.5826 17.2264 28.1506 19.3384 27.2866 20.9704C26.4706 22.6024 25.1986 23.7784 23.4706 24.4984V24.6424C27.4066 25.9864 29.3746 29.4904 29.3746 35.1544V39.4744C29.3746 43.3624 28.3426 46.3384 26.2786 48.4024C24.2626 50.4184 21.2866 51.4264 17.3506 51.4264H4.8946V1.02636ZM15.9106 21.5464C17.4946 21.5464 18.6706 21.1384 19.4386 20.3224C20.2546 19.5064 20.6626 18.1384 20.6626 16.2184V13.4104C20.6626 11.5864 20.3266 10.2664 19.6546 9.45036C19.0306 8.63436 18.0226 8.22636 16.6306 8.22636H12.8146V21.5464H15.9106ZM17.3506 44.2264C18.7426 44.2264 19.7746 43.8664 20.4466 43.1464C21.1186 42.3784 21.4546 41.0824 21.4546 39.2584V34.8664C21.4546 32.5624 21.0466 30.9784 20.2306 30.1144C19.4626 29.2024 18.1666 28.7464 16.3426 28.7464H12.8146V44.2264H17.3506ZM34.004 1.02636H41.924V51.4264H34.004V1.02636ZM47.8555 1.02636H55.7755V22.2664L65.8555 1.02636H73.7755L64.3435 19.5304L73.9195 51.4264H65.6395L58.9435 28.9624L55.7755 35.3704V51.4264H47.8555V1.02636ZM77.668 1.02636H85.588V51.4264H77.668V1.02636ZM91.5196 1.02636H101.456L109.16 31.1944H109.304V1.02636H116.36V51.4264H108.224L98.7196 14.6344H98.5756V51.4264H91.5196V1.02636ZM122.246 1.02636H130.166V51.4264H122.246V1.02636ZM146.394 52.1464C142.554 52.1464 139.65 51.0664 137.682 48.9064C135.714 46.6984 134.73 43.5544 134.73 39.4744V36.5944H142.218V40.0504C142.218 43.3144 143.586 44.9464 146.322 44.9464C147.666 44.9464 148.674 44.5624 149.346 43.7944C150.066 42.9784 150.426 41.6824 150.426 39.9064C150.426 37.7944 149.946 35.9464 148.986 34.3624C148.026 32.7304 146.25 30.7864 143.658 28.5304C140.394 25.6504 138.114 23.0584 136.818 20.7544C135.522 18.4024 134.874 15.7624 134.874 12.8344C134.874 8.85036 135.882 5.77836 137.898 3.61836C139.914 1.41036 142.842 0.306358 146.682 0.306358C150.474 0.306358 153.33 1.41036 155.25 3.61836C157.218 5.77836 158.202 8.89836 158.202 12.9784V15.0664H150.714V12.4744C150.714 10.7464 150.378 9.49836 149.706 8.73036C149.034 7.91436 148.05 7.50636 146.754 7.50636C144.114 7.50636 142.794 9.11436 142.794 12.3304C142.794 14.1544 143.274 15.8584 144.234 17.4424C145.242 19.0264 147.042 20.9464 149.634 23.2024C152.946 26.0824 155.226 28.6984 156.474 31.0504C157.722 33.4024 158.346 36.1624 158.346 39.3304C158.346 43.4584 157.314 46.6264 155.25 48.8344C153.234 51.0424 150.282 52.1464 146.394 52.1464Z" fill="white"/>
</g>
<defs>
<filter id="filter0_d_795_402" x="0.894592" y="0.306366" width="161.451" height="59.84" filterUnits="userSpaceOnUse" color-interpolation-filters="sRGB">
<feFlood flood-opacity="0" result="BackgroundImageFix"/>
<feColorMatrix in="SourceAlpha" type="matrix" values="0 0 0 0 0 0 0 0 0 0 0 0 0 0 0 0 0 0 127 0" result="hardAlpha"/>
<feOffset dy="4"/>
<feGaussianBlur stdDeviation="2"/>
<feComposite in2="hardAlpha" operator="out"/>
<feColorMatrix type="matrix" values="0 0 0 0 0 0 0 0 0 0 0 0 0 0 0 0 0 0 0.25 0"/>
<feBlend mode="normal" in2="BackgroundImageFix" result="effect1_dropShadow_795_402"/>
<feBlend mode="normal" in="SourceGraphic" in2="effect1_dropShadow_795_402" result="shape"/>
</filter>
</defs>
</svg>
