<svg width="196" height="61" viewBox="0 0 196 61" fill="none" xmlns="http://www.w3.org/2000/svg">
<g filter="url(#filter0_d_797_403)">
<path d="M16.112 52.72C12.32 52.72 9.416 51.64 7.4 49.48C5.432 47.32 4.448 44.272 4.448 40.336V13.264C4.448 9.328 5.432 6.28 7.4 4.12C9.416 1.96 12.32 0.879997 16.112 0.879997C19.904 0.879997 22.784 1.96 24.752 4.12C26.768 6.28 27.776 9.328 27.776 13.264V18.592H20.288V12.76C20.288 9.64 18.968 8.08 16.328 8.08C13.688 8.08 12.368 9.64 12.368 12.76V40.912C12.368 43.984 13.688 45.52 16.328 45.52C18.968 45.52 20.288 43.984 20.288 40.912V33.208H27.776V40.336C27.776 44.272 26.768 47.32 24.752 49.48C22.784 51.64 19.904 52.72 16.112 52.72ZM38.6345 1.6H49.3625L57.5705 52H49.6505L48.2105 41.992V42.136H39.2105L37.7705 52H30.4265L38.6345 1.6ZM47.2745 35.296L43.7465 10.384H43.6025L40.1465 35.296H47.2745ZM61.4129 1.6H72.7169L77.7569 37.672H77.9009L82.9409 1.6H94.2449V52H86.7569V13.84H86.6129L80.8529 52H74.2289L68.4689 13.84H68.3249V52H61.4129V1.6ZM100.155 1.6H108.075V52H100.155V1.6ZM124.303 52.72C120.463 52.72 117.559 51.64 115.591 49.48C113.623 47.272 112.639 44.128 112.639 40.048V37.168H120.127V40.624C120.127 43.888 121.495 45.52 124.231 45.52C125.575 45.52 126.583 45.136 127.255 44.368C127.975 43.552 128.335 42.256 128.335 40.48C128.335 38.368 127.855 36.52 126.895 34.936C125.935 33.304 124.159 31.36 121.567 29.104C118.303 26.224 116.023 23.632 114.727 21.328C113.431 18.976 112.783 16.336 112.783 13.408C112.783 9.424 113.791 6.352 115.807 4.192C117.823 1.984 120.751 0.879997 124.591 0.879997C128.383 0.879997 131.239 1.984 133.159 4.192C135.127 6.352 136.111 9.472 136.111 13.552V15.64H128.623V13.048C128.623 11.32 128.287 10.072 127.615 9.304C126.943 8.488 125.959 8.08 124.663 8.08C122.023 8.08 120.703 9.688 120.703 12.904C120.703 14.728 121.183 16.432 122.143 18.016C123.151 19.6 124.951 21.52 127.543 23.776C130.855 26.656 133.135 29.272 134.383 31.624C135.631 33.976 136.255 36.736 136.255 39.904C136.255 44.032 135.223 47.2 133.159 49.408C131.143 51.616 128.191 52.72 124.303 52.72ZM146.705 1.6H157.433L165.641 52H157.721L156.281 41.992V42.136H147.281L145.841 52H138.497L146.705 1.6ZM155.345 35.296L151.817 10.384H151.673L148.217 35.296H155.345ZM179.568 52.72C175.728 52.72 172.824 51.64 170.856 49.48C168.888 47.272 167.904 44.128 167.904 40.048V37.168H175.392V40.624C175.392 43.888 176.76 45.52 179.496 45.52C180.84 45.52 181.848 45.136 182.52 44.368C183.24 43.552 183.6 42.256 183.6 40.48C183.6 38.368 183.12 36.52 182.16 34.936C181.2 33.304 179.424 31.36 176.832 29.104C173.568 26.224 171.288 23.632 169.992 21.328C168.696 18.976 168.048 16.336 168.048 13.408C168.048 9.424 169.056 6.352 171.072 4.192C173.088 1.984 176.016 0.879997 179.856 0.879997C183.648 0.879997 186.504 1.984 188.424 4.192C190.392 6.352 191.376 9.472 191.376 13.552V15.64H183.888V13.048C183.888 11.32 183.552 10.072 182.88 9.304C182.208 8.488 181.224 8.08 179.928 8.08C177.288 8.08 175.968 9.688 175.968 12.904C175.968 14.728 176.448 16.432 177.408 18.016C178.416 19.6 180.216 21.52 182.808 23.776C186.12 26.656 188.4 29.272 189.648 31.624C190.896 33.976 191.52 36.736 191.52 39.904C191.52 44.032 190.488 47.2 188.424 49.408C186.408 51.616 183.456 52.72 179.568 52.72Z" fill="white"/>
</g>
<defs>
<filter id="filter0_d_797_403" x="0.447998" y="0.880005" width="195.072" height="59.84" filterUnits="userSpaceOnUse" color-interpolation-filters="sRGB">
<feFlood flood-opacity="0" result="BackgroundImageFix"/>
<feColorMatrix in="SourceAlpha" type="matrix" values="0 0 0 0 0 0 0 0 0 0 0 0 0 0 0 0 0 0 127 0" result="hardAlpha"/>
<feOffset dy="4"/>
<feGaussianBlur stdDeviation="2"/>
<feComposite in2="hardAlpha" operator="out"/>
<feColorMatrix type="matrix" values="0 0 0 0 0 0 0 0 0 0 0 0 0 0 0 0 0 0 0.25 0"/>
<feBlend mode="normal" in2="BackgroundImageFix" result="effect1_dropShadow_797_403"/>
<feBlend mode="normal" in="SourceGraphic" in2="effect1_dropShadow_797_403" result="shape"/>
</filter>
</defs>
</svg>
